<svg width="368" height="83" viewBox="0 0 368 83" fill="none" xmlns="http://www.w3.org/2000/svg">
<mask id="mask0_161_477" style="mask-type:alpha" maskUnits="userSpaceOnUse" x="44" y="21" width="35" height="40">
<path d="M54.6259 47.2918C49.5323 46.6764 45.7165 42.9111 45 35.6323C47.6316 33.4118 54.5022 55.4864 51.3737 30.7036C48.6999 9.52213 51.8912 31.7232 54.6259 47.2918C60.2058 47.9659 67.3192 44.8601 73.5717 38.4523C74.9608 36.5752 76.4535 34.7432 78.0594 33.0388C76.6421 35.0444 75.1338 36.8514 73.5717 38.4523C63.388 52.2135 58.7739 68.3938 55.9501 54.4117C55.5426 52.394 55.0909 49.9388 54.6259 47.2918Z" fill="#2C2C2C"/>
<path d="M45 35.6323C46.6975 52.8768 65.7907 50.4006 78.0594 33.0388C64.6801 47.2383 59.159 70.301 55.9501 54.4117C53.146 40.5267 48.2452 5.92082 51.3737 30.7036C54.5022 55.4864 47.6316 33.4118 45 35.6323Z" stroke="black"/>
</mask>
<g mask="url(#mask0_161_477)">
<rect x="54.4456" y="32.2327" width="39.3564" height="37.3886" fill="#1D398D"/>
<rect x="22.1733" y="19.6387" width="32.2723" height="27.9431" fill="#ED1B24"/>
</g>
<mask id="mask1_161_477" style="mask-type:alpha" maskUnits="userSpaceOnUse" x="27" y="10" width="63" height="63">
<circle cx="58.5" cy="41.5" r="29" stroke="black" stroke-width="5"/>
</mask>
<g mask="url(#mask1_161_477)">
<rect x="6.41577" y="4.38623" width="51.7723" height="74.2277" fill="#ED1B24"/>
<rect x="58.1881" y="4.38623" width="51.7723" height="74.2277" fill="#1D398D"/>
</g>
<path d="M129.987 52H125.563V30.8623H129.987V40.2812H130.251L138.059 30.8623H142.98L135.275 40.1348L143.522 52H138.22L132.082 43.1523L129.987 45.6279V52ZM146.862 30.8623H155.681C157.858 30.8623 159.621 31.5361 160.969 32.8838C162.326 34.2217 163.005 35.9844 163.005 38.1719C163.005 40.3398 162.307 42.0928 160.91 43.4307C159.514 44.7686 157.697 45.4375 155.461 45.4375H151.286V52H146.862V30.8623ZM151.286 34.4951V41.8486H154.494C155.773 41.8486 156.76 41.5361 157.453 40.9111C158.156 40.2764 158.508 39.3682 158.508 38.1865C158.508 36.9951 158.161 36.082 157.468 35.4473C156.774 34.8125 155.788 34.4951 154.509 34.4951H151.286ZM164.455 45.7891H168.732C168.752 46.6387 169.016 47.3174 169.523 47.8252C170.041 48.333 170.725 48.5869 171.574 48.5869C172.482 48.5869 173.176 48.3184 173.654 47.7812C174.143 47.2344 174.387 46.4434 174.387 45.4082V30.8623H178.811V45.4375C178.811 47.7031 178.176 49.4561 176.906 50.6963C175.646 51.9268 173.889 52.542 171.633 52.542C169.455 52.542 167.712 51.9316 166.403 50.7109C165.104 49.4902 164.455 47.8496 164.455 45.7891ZM205.266 52L203.669 46.9609H196.242L194.616 52H190.178L197.517 30.8623H202.717L210.056 52H205.266ZM199.846 35.2568L197.194 43.5479H202.731L200.109 35.2568H199.846ZM212.429 40.5889C212.429 39.0557 213.044 37.8252 214.274 36.8975C215.515 35.96 217.141 35.4912 219.152 35.4912C221.203 35.4912 222.81 35.9062 223.972 36.7363C225.144 37.5664 225.788 38.7529 225.905 40.2959H221.965C221.857 39.7686 221.56 39.3584 221.071 39.0654C220.593 38.7627 219.963 38.6113 219.182 38.6113C218.41 38.6113 217.775 38.7725 217.277 39.0947C216.779 39.4072 216.53 39.8174 216.53 40.3252C216.53 40.7158 216.706 41.043 217.058 41.3066C217.409 41.5605 217.961 41.7705 218.713 41.9365L221.745 42.5957C223.317 42.9375 224.465 43.46 225.188 44.1631C225.92 44.8662 226.286 45.8184 226.286 47.0195C226.286 48.6211 225.632 49.9102 224.323 50.8867C223.015 51.8633 221.296 52.3516 219.167 52.3516C217.038 52.3516 215.354 51.9316 214.113 51.0918C212.873 50.252 212.18 49.0557 212.033 47.5029H216.193C216.535 48.6553 217.556 49.2314 219.255 49.2314C220.085 49.2314 220.759 49.0752 221.276 48.7627C221.794 48.4404 222.053 48.0205 222.053 47.5029C222.053 47.1025 221.892 46.7803 221.569 46.5361C221.247 46.2822 220.729 46.0771 220.017 45.9209L217.087 45.2617C215.515 44.9199 214.343 44.3682 213.571 43.6064C212.81 42.835 212.429 41.8291 212.429 40.5889ZM229.128 40.5889C229.128 39.0557 229.743 37.8252 230.974 36.8975C232.214 35.96 233.84 35.4912 235.852 35.4912C237.902 35.4912 239.509 35.9062 240.671 36.7363C241.843 37.5664 242.487 38.7529 242.604 40.2959H238.664C238.557 39.7686 238.259 39.3584 237.771 39.0654C237.292 38.7627 236.662 38.6113 235.881 38.6113C235.109 38.6113 234.475 38.7725 233.977 39.0947C233.479 39.4072 233.229 39.8174 233.229 40.3252C233.229 40.7158 233.405 41.043 233.757 41.3066C234.108 41.5605 234.66 41.7705 235.412 41.9365L238.444 42.5957C240.017 42.9375 241.164 43.46 241.887 44.1631C242.619 44.8662 242.985 45.8184 242.985 47.0195C242.985 48.6211 242.331 49.9102 241.022 50.8867C239.714 51.8633 237.995 52.3516 235.866 52.3516C233.737 52.3516 232.053 51.9316 230.812 51.0918C229.572 50.252 228.879 49.0557 228.732 47.5029H232.893C233.234 48.6553 234.255 49.2314 235.954 49.2314C236.784 49.2314 237.458 49.0752 237.976 48.7627C238.493 48.4404 238.752 48.0205 238.752 47.5029C238.752 47.1025 238.591 46.7803 238.269 46.5361C237.946 46.2822 237.429 46.0771 236.716 45.9209L233.786 45.2617C232.214 44.9199 231.042 44.3682 230.271 43.6064C229.509 42.835 229.128 41.8291 229.128 40.5889ZM253.474 38.7578C252.487 38.7578 251.672 39.0752 251.027 39.71C250.393 40.3447 250.036 41.1846 249.958 42.2295H256.843C256.794 41.1553 256.467 40.3105 255.861 39.6953C255.266 39.0703 254.47 38.7578 253.474 38.7578ZM256.931 47.4004H260.9C260.578 48.9336 259.758 50.1445 258.439 51.0332C257.131 51.9121 255.49 52.3516 253.518 52.3516C251.057 52.3516 249.138 51.6191 247.761 50.1543C246.384 48.6797 245.695 46.6289 245.695 44.002C245.695 41.375 246.389 39.2998 247.775 37.7764C249.162 36.2529 251.057 35.4912 253.459 35.4912C255.842 35.4912 257.697 36.209 259.025 37.6445C260.363 39.0801 261.032 41.082 261.032 43.6504V44.9541H249.943V45.1738C249.973 46.375 250.314 47.3271 250.969 48.0303C251.633 48.7236 252.521 49.0703 253.635 49.0703C254.475 49.0703 255.178 48.9287 255.744 48.6455C256.311 48.3525 256.706 47.9375 256.931 47.4004ZM265.749 32.0049H270.012V36.0039H273.366V39.3584H270.012V46.624C270.012 47.3271 270.178 47.8447 270.51 48.1768C270.852 48.5088 271.384 48.6748 272.106 48.6748C272.585 48.6748 273.005 48.6553 273.366 48.6162V51.8682C272.712 51.9951 271.999 52.0586 271.228 52.0586C269.265 52.0586 267.858 51.7168 267.009 51.0332C266.169 50.3496 265.749 49.2168 265.749 47.6348V39.3584H263.229V36.0039H265.749V32.0049ZM289.069 38.0107L285.114 52H280.939L275.344 30.8623H279.943L283.239 45.7598H283.474L287.326 30.8623H291.062L294.987 45.7598H295.222L298.488 30.8623H303.059L297.448 52H293.303L289.304 38.0107H289.069ZM306.516 52V35.8428H310.778V52H306.516ZM308.654 33.5869C307.893 33.5869 307.282 33.3867 306.823 32.9863C306.364 32.5859 306.135 32.0684 306.135 31.4336C306.135 30.7891 306.364 30.2715 306.823 29.8809C307.282 29.4805 307.893 29.2803 308.654 29.2803C309.416 29.2803 310.026 29.4805 310.485 29.8809C310.944 30.2715 311.174 30.7891 311.174 31.4336C311.174 32.0684 310.939 32.5859 310.471 32.9863C310.012 33.3867 309.406 33.5869 308.654 33.5869ZM314.733 40.5889C314.733 39.0557 315.349 37.8252 316.579 36.8975C317.819 35.96 319.445 35.4912 321.457 35.4912C323.508 35.4912 325.114 35.9062 326.276 36.7363C327.448 37.5664 328.093 38.7529 328.21 40.2959H324.27C324.162 39.7686 323.864 39.3584 323.376 39.0654C322.897 38.7627 322.268 38.6113 321.486 38.6113C320.715 38.6113 320.08 38.7725 319.582 39.0947C319.084 39.4072 318.835 39.8174 318.835 40.3252C318.835 40.7158 319.011 41.043 319.362 41.3066C319.714 41.5605 320.266 41.7705 321.018 41.9365L324.05 42.5957C325.622 42.9375 326.77 43.46 327.492 44.1631C328.225 44.8662 328.591 45.8184 328.591 47.0195C328.591 48.6211 327.937 49.9102 326.628 50.8867C325.319 51.8633 323.601 52.3516 321.472 52.3516C319.343 52.3516 317.658 51.9316 316.418 51.0918C315.178 50.252 314.484 49.0557 314.338 47.5029H318.498C318.84 48.6553 319.86 49.2314 321.56 49.2314C322.39 49.2314 323.063 49.0752 323.581 48.7627C324.099 48.4404 324.357 48.0205 324.357 47.5029C324.357 47.1025 324.196 46.7803 323.874 46.5361C323.552 46.2822 323.034 46.0771 322.321 45.9209L319.392 45.2617C317.819 44.9199 316.647 44.3682 315.876 43.6064C315.114 42.835 314.733 41.8291 314.733 40.5889ZM339.079 38.7578C338.093 38.7578 337.277 39.0752 336.633 39.71C335.998 40.3447 335.642 41.1846 335.563 42.2295H342.448C342.399 41.1553 342.072 40.3105 341.467 39.6953C340.871 39.0703 340.075 38.7578 339.079 38.7578ZM342.536 47.4004H346.506C346.184 48.9336 345.363 50.1445 344.045 51.0332C342.736 51.9121 341.096 52.3516 339.123 52.3516C336.662 52.3516 334.743 51.6191 333.366 50.1543C331.989 48.6797 331.301 46.6289 331.301 44.002C331.301 41.375 331.994 39.2998 333.381 37.7764C334.768 36.2529 336.662 35.4912 339.064 35.4912C341.447 35.4912 343.303 36.209 344.631 37.6445C345.969 39.0801 346.638 41.082 346.638 43.6504V44.9541H335.549V45.1738C335.578 46.375 335.92 47.3271 336.574 48.0303C337.238 48.7236 338.127 49.0703 339.24 49.0703C340.08 49.0703 340.783 48.9287 341.35 48.6455C341.916 48.3525 342.312 47.9375 342.536 47.4004Z" fill="black"/>
</svg>
